Coordinates
version=1
nRows=6
nColumns=36
inDegrees=yes

Units are S.I. units (second, meters, Newtons, ...)
If the header above contains a line with 'inDegrees', this indicates whether rotational values are in degrees (yes) or radians (no).

endheader
time	pelvis_tilt	pelvis_list	pelvis_rotation	pelvis_tx	pelvis_ty	pelvis_tz	hip_flexion_r	hip_adduction_r	hip_rotation_r	knee_angle_r	knee_angle_r_beta	ankle_angle_r	subtalar_angle_r	mtp_angle_r	hip_flexion_l	hip_adduction_l	hip_rotation_l	knee_angle_l	knee_angle_l_beta	ankle_angle_l	subtalar_angle_l	mtp_angle_l	lumbar_extension	lumbar_bending	lumbar_rotation	arm_flex_r	arm_add_r	arm_rot_r	elbow_flex_r	pro_sup_r	arm_flex_l	arm_add_l	arm_rot_l	elbow_flex_l	pro_sup_l
      1.39000000	    -14.15657380	     -3.49716021	      2.94856463	     -0.40756600	      0.99960930	     -0.61553938	     41.11837176	     -3.89162043	     -0.65708074	     20.63755658	      0.36019331	    -31.32110791	     -4.47065711	     -6.95633937	     42.31660521	     -8.24157920	      2.05968873	     16.31581992	      0.28476478	    -31.36919187	      3.45983288	     -6.95633937	    -23.08846571	      4.20505726	     -3.86048828	    -26.33645461	    -39.54466291	     -5.35852458	     59.34522570	    108.31571287	    -33.72065423	    -16.93258349	     -9.91674348	     50.27383826	     98.32939789
      1.40000000	    -13.51236990	     -3.34671584	      2.84028032	     -0.39652110	      0.97628518	     -0.61609351	     41.45306840	     -4.10277942	     -1.12009504	     22.61249900	      0.39466256	    -31.20058288	     -4.16085693	     -6.98318257	     42.44505454	     -8.17584903	      2.17679477	     17.90825999	      0.31255810	    -31.09111569	      3.68049773	     -6.98318257	    -23.56484358	      4.04384396	     -3.60204344	    -26.05903591	    -39.79580272	     -5.68518958	     59.02387341	    107.36462363	    -33.29284686	    -16.69659151	    -10.06121902	     49.86595152	     97.63805199
      1.41000000	    -12.79797678	     -3.19480702	      2.71180188	     -0.38545711	      0.95202855	     -0.61650830	     41.73362417	     -4.20701637	     -1.16447305	     24.59602084	      0.42928155	    -31.84335749	     -3.30927285	     -7.00409468	     42.55903300	     -8.08784382	      2.48572945	     19.64827167	      0.34292703	    -31.76888352	      4.16790192	     -7.00409468	    -24.09877150	      3.85499762	     -3.26236445	    -25.69380977	    -40.13274720	     -5.84785182	     58.81782088	    106.58411338	    -32.77378768	    -16.71558575	    -10.05115276	     49.69920558	     97.07202864
      1.42000000	    -12.00569812	     -3.04231655	      2.57343857	     -0.37477931	      0.92711478	     -0.61676244	     42.04663443	     -4.19518887	     -0.74762527	     27.02593641	      0.47169157	    -31.37843274	     -2.76121909	     -7.02983122	     42.73115676	     -7.99132703	      2.92505196	     22.05489508	      0.38493054	    -31.15929278	      4.13563353	     -7.02983122	    -24.78396269	      3.67463893	     -2.94038784	    -25.09518041	    -40.50334084	     -6.02712664	     58.83401670	    105.09178485	    -32.13561763	    -16.94818108	    -10.02769262	     49.96536903	     95.98884188
      1.43000000	    -11.73122849	     -2.77900792	      2.34517178	     -0.36513537	      0.90066521	     -0.61683375	     43.60399720	     -4.52138100	     -1.24121881	     31.66959501	      0.55273871	    -27.17360740	     -3.31515963	     -7.08883284	     43.82272595	     -7.83162859	      2.91842491	     26.56702765	      0.46368211	    -25.20349267	      2.34781055	     -7.08883284	    -24.87951261	      3.31725774	     -2.55112114	    -24.25158189	    -40.84279123	     -5.92726229	     58.69022693	    101.91757892	    -31.21477564	    -17.48188904	     -9.69098054	     50.17331133	     93.63632341
      1.44000000	    -11.23241918	     -2.65281591	      2.21658127	     -0.35591512	      0.87359626	     -0.61702334	     45.27516876	     -4.78108053	     -1.77277655	     38.83393637	      0.67778005	    -14.54268705	     -4.19635856	     -7.21610285	     45.09386419	     -7.52391190	      3.66140868	     33.68742472	      0.58795648	     -9.79860535	      1.48978442	     -7.21610285	    -25.23016751	      3.12924671	     -2.56324586	    -22.45459540	    -41.78677765	     -4.85807341	     57.49711259	    110.23085267	    -30.27953018	    -18.13303715	     -9.77925153	     49.20681628	    101.38296663
